<svg xmlns="http://www.w3.org/2000/svg" viewBox="0 0 104.55 125.02">   <g id="Layer_2" transform="matrix(1, 0, 0, 1, -88.54400634765625, -62.714752197265625)" style="isolation: isolate;">     <g id="g-1" transform="matrix(1, 0, 0, 1, 47.73402, 62.71476)" style="isolation: isolate;">       <g id="Layer_1-2">         <path class="cls-4" d="m92.55,125.02c2.59-1.35,7.08-3.93,12.34-7.91L58.71,23.48l-17.9,10.87c-.01,27.73,8.58,51.29,25.58,70.11,10.53,11.65,21.44,18.11,26.15,20.56" style="mix-blend-mode: multiply; opacity: 0.9; fill: rgb(68, 190, 223);"/>         <path class="cls-3" d="m46.99,60.32l-.43,1.57c4.18,13.8,11.16,26.15,20.91,36.93,10.53,11.65,21.45,18.11,26.16,20.56,4.7-2.45,15.62-8.91,26.15-20.56,4.39-4.86,8.22-10.04,11.49-15.53l-84.28-22.97Z" style="mix-blend-mode: multiply; fill: rgb(236, 178, 46);"/>         <path class="cls-5" d="m96.43,3.75l28.16,94.08c13.81-17.79,20.78-39.38,20.77-64.36L96.43,3.75" style="mix-blend-mode: multiply; fill: rgb(46, 182, 125);"/>         <path class="cls-2" d="m93.62,0l-51.74,31.43c0,7.71.66,15.1,1.98,22.15L120,16.03,93.62,0" style="mix-blend-mode: multiply; fill: rgb(224, 30, 90);"/>       </g>     </g>   </g> </svg>