<svg xmlns="http://www.w3.org/2000/svg" viewBox="0 2.85 54.81 21.52">   <g id="Layer_2" transform="matrix(0.17216603457927704, 0, 0, 0.17216603457927704, -15.244260787963853, -7.947350978851318)" style="isolation: isolate;">     <g id="g-1" transform="matrix(1, 0, 0, 1, 47.73402, 62.71476)" style="isolation: isolate;">       <g id="Layer_1-2">         <path class="cls-4" d="m92.55,125.02c2.59-1.35,7.08-3.93,12.34-7.91L58.71,23.48l-17.9,10.87c-.01,27.73,8.58,51.29,25.58,70.11,10.53,11.65,21.44,18.11,26.15,20.56" style="mix-blend-mode: multiply; opacity: 0.9; fill: rgb(68, 190, 223);"/>         <path class="cls-3" d="m46.99,60.32l-.43,1.57c4.18,13.8,11.16,26.15,20.91,36.93,10.53,11.65,21.45,18.11,26.16,20.56,4.7-2.45,15.62-8.91,26.15-20.56,4.39-4.86,8.22-10.04,11.49-15.53l-84.28-22.97Z" style="mix-blend-mode: multiply; fill: rgb(236, 178, 46);"/>         <path class="cls-5" d="m96.43,3.75l28.16,94.08c13.81-17.79,20.78-39.38,20.77-64.36L96.43,3.75" style="mix-blend-mode: multiply; fill: rgb(46, 182, 125);"/>         <path class="cls-2" d="m93.62,0l-51.74,31.43c0,7.71.66,15.1,1.98,22.15L120,16.03,93.62,0" style="mix-blend-mode: multiply; fill: rgb(224, 30, 90);"/>       </g>     </g>   </g>   <path d="M 120.445 88.266 L 120.445 79.39 L 123.321 79.39 Q 124.956 79.39 125.452 79.523 Q 126.215 79.723 126.73 80.392 Q 127.245 81.061 127.245 82.12 Q 127.245 82.938 126.948 83.495 Q 126.651 84.052 126.194 84.37 Q 125.737 84.688 125.265 84.791 Q 124.623 84.918 123.406 84.918 L 122.237 84.918 L 122.237 88.266 Z M 122.237 80.891 L 122.237 83.41 L 123.218 83.41 Q 124.278 83.41 124.635 83.271 Q 124.992 83.132 125.195 82.835 Q 125.398 82.538 125.398 82.145 Q 125.398 81.66 125.113 81.345 Q 124.829 81.031 124.393 80.952 Q 124.072 80.891 123.103 80.891 Z M 129.441 83.798 L 127.897 83.519 Q 128.157 82.587 128.793 82.139 Q 129.428 81.691 130.682 81.691 Q 131.82 81.691 132.377 81.96 Q 132.934 82.229 133.161 82.644 Q 133.388 83.059 133.388 84.167 L 133.37 86.153 Q 133.37 87.001 133.452 87.403 Q 133.534 87.806 133.758 88.266 L 132.074 88.266 Q 132.008 88.096 131.911 87.763 Q 131.868 87.612 131.85 87.564 Q 131.414 87.987 130.918 88.199 Q 130.421 88.411 129.858 88.411 Q 128.865 88.411 128.293 87.872 Q 127.721 87.334 127.721 86.51 Q 127.721 85.965 127.981 85.538 Q 128.242 85.112 128.711 84.884 Q 129.18 84.657 130.064 84.488 Q 131.257 84.264 131.717 84.07 L 131.717 83.901 Q 131.717 83.41 131.475 83.201 Q 131.233 82.992 130.561 82.992 Q 130.107 82.992 129.852 83.171 Q 129.598 83.35 129.441 83.798 Z M 131.717 85.178 Q 131.39 85.287 130.682 85.438 Q 129.973 85.59 129.755 85.735 Q 129.422 85.971 129.422 86.335 Q 129.422 86.692 129.689 86.952 Q 129.955 87.212 130.367 87.212 Q 130.827 87.212 131.245 86.91 Q 131.554 86.68 131.651 86.347 Q 131.717 86.129 131.717 85.517 Z M 141.824 88.266 L 140.123 88.266 L 140.123 84.984 Q 140.123 83.943 140.014 83.637 Q 139.905 83.331 139.66 83.162 Q 139.415 82.992 139.069 82.992 Q 138.627 82.992 138.276 83.235 Q 137.925 83.477 137.795 83.876 Q 137.665 84.276 137.665 85.354 L 137.665 88.266 L 135.963 88.266 L 135.963 81.836 L 137.544 81.836 L 137.544 82.78 Q 138.385 81.691 139.663 81.691 Q 140.226 81.691 140.692 81.893 Q 141.158 82.096 141.397 82.411 Q 141.637 82.726 141.73 83.126 Q 141.824 83.525 141.824 84.27 Z M 144.157 80.964 L 144.157 79.39 L 145.858 79.39 L 145.858 80.964 Z M 144.157 88.266 L 144.157 81.836 L 145.858 81.836 L 145.858 88.266 Z M 153.678 83.737 L 152.001 84.04 Q 151.917 83.537 151.617 83.283 Q 151.317 83.029 150.839 83.029 Q 150.203 83.029 149.825 83.468 Q 149.446 83.907 149.446 84.936 Q 149.446 86.08 149.831 86.553 Q 150.215 87.025 150.863 87.025 Q 151.347 87.025 151.656 86.749 Q 151.965 86.474 152.092 85.802 L 153.763 86.086 Q 153.503 87.237 152.764 87.824 Q 152.025 88.411 150.784 88.411 Q 149.374 88.411 148.535 87.521 Q 147.696 86.631 147.696 85.057 Q 147.696 83.465 148.538 82.578 Q 149.38 81.691 150.815 81.691 Q 151.989 81.691 152.682 82.196 Q 153.376 82.702 153.678 83.737 Z" transform="matrix(1, 0, 0, 1, -99.542999, -76.050308)" style="fill: rgb(15, 23, 42);"/>   <path transform="matrix(1, 0, 0, 1, -99.542999, -76.050308)" style="fill: rgb(15, 23, 42);"/>   <path d="M 128.449 99.426 L 126.5 99.426 L 125.725 97.41 L 122.177 97.41 L 121.444 99.426 L 119.543 99.426 L 123 90.55 L 124.895 90.55 Z M 125.15 95.914 L 123.927 92.621 L 122.728 95.914 Z M 129.232 99.426 L 129.232 90.55 L 130.933 90.55 L 130.933 99.426 Z M 133.832 94.958 L 132.288 94.679 Q 132.549 93.747 133.184 93.299 Q 133.82 92.851 135.073 92.851 Q 136.212 92.851 136.769 93.12 Q 137.326 93.389 137.553 93.804 Q 137.78 94.219 137.78 95.327 L 137.762 97.313 Q 137.762 98.161 137.843 98.563 Q 137.925 98.966 138.149 99.426 L 136.466 99.426 Q 136.399 99.256 136.302 98.923 Q 136.26 98.772 136.242 98.724 Q 135.806 99.147 135.309 99.359 Q 134.813 99.571 134.25 99.571 Q 133.257 99.571 132.685 99.032 Q 132.113 98.494 132.113 97.67 Q 132.113 97.125 132.373 96.698 Q 132.633 96.272 133.103 96.044 Q 133.572 95.817 134.456 95.648 Q 135.649 95.424 136.109 95.23 L 136.109 95.061 Q 136.109 94.57 135.866 94.361 Q 135.624 94.152 134.952 94.152 Q 134.498 94.152 134.244 94.331 Q 133.99 94.51 133.832 94.958 Z M 136.109 96.338 Q 135.782 96.447 135.073 96.598 Q 134.365 96.75 134.147 96.895 Q 133.814 97.131 133.814 97.495 Q 133.814 97.852 134.08 98.112 Q 134.347 98.372 134.758 98.372 Q 135.219 98.372 135.636 98.07 Q 135.945 97.84 136.042 97.507 Q 136.109 97.289 136.109 96.677 Z M 141.496 99.426 L 139.794 99.426 L 139.794 92.996 L 141.375 92.996 L 141.375 93.91 Q 141.78 93.262 142.104 93.056 Q 142.428 92.851 142.84 92.851 Q 143.421 92.851 143.96 93.172 L 143.433 94.655 Q 143.003 94.376 142.634 94.376 Q 142.277 94.376 142.028 94.573 Q 141.78 94.77 141.638 95.285 Q 141.496 95.799 141.496 97.44 Z M 144.897 92.996 L 146.465 92.996 L 146.465 93.874 Q 147.307 92.851 148.469 92.851 Q 149.087 92.851 149.541 93.105 Q 149.995 93.359 150.286 93.874 Q 150.71 93.359 151.2 93.105 Q 151.69 92.851 152.247 92.851 Q 152.956 92.851 153.446 93.138 Q 153.937 93.426 154.179 93.983 Q 154.355 94.395 154.355 95.315 L 154.355 99.426 L 152.653 99.426 L 152.653 95.751 Q 152.653 94.794 152.478 94.516 Q 152.241 94.152 151.751 94.152 Q 151.394 94.152 151.079 94.37 Q 150.764 94.588 150.625 95.009 Q 150.486 95.43 150.486 96.338 L 150.486 99.426 L 148.784 99.426 L 148.784 95.902 Q 148.784 94.964 148.693 94.691 Q 148.603 94.419 148.412 94.286 Q 148.221 94.152 147.894 94.152 Q 147.501 94.152 147.186 94.364 Q 146.871 94.576 146.735 94.976 Q 146.598 95.375 146.598 96.302 L 146.598 99.426 L 144.897 99.426 Z" transform="matrix(1, 0, 0, 1, -99.542999, -76.050308)" style="fill: rgb(15, 23, 42);"/> </svg>