<svg version="1.1" id="Layer_1" xmlns="http://www.w3.org/2000/svg" xmlns:xlink="http://www.w3.org/1999/xlink" x="0px" y="0px"
	 width="100%" viewBox="0 0 560 560" enable-background="new 0 0 560 560" xml:space="preserve">
<path fill="#8fb1d1" opacity="1.000000" stroke="none" 
	d="
M221.707794,54.711746 
	C236.362701,47.856911 251.308121,43.585499 267.092590,41.919399 
	C288.362671,39.674282 309.295990,40.387047 329.480255,48.056503 
	C345.969482,54.321945 360.971100,63.104549 373.932037,75.326286 
	C385.821869,86.538055 396.327576,98.919762 403.577667,113.462059 
	C409.080231,124.499146 412.971710,136.407410 416.812042,148.178589 
	C418.955200,154.747711 414.577026,160.330093 407.618103,161.755356 
	C403.196411,162.660980 397.363312,158.204834 396.024536,152.762283 
	C389.719421,127.130463 376.528625,105.519722 356.662445,88.388206 
	C340.875488,74.774391 322.730682,65.518700 301.556244,62.928192 
	C278.321991,60.085678 256.020447,62.934673 234.454437,72.111626 
	C220.178665,78.186386 207.679214,86.931931 196.872360,97.809258 
	C179.909317,114.882912 168.634033,135.535126 164.339600,159.149704 
	C161.969971,172.179825 161.098145,185.924347 162.376755,199.072006 
	C164.279236,218.634567 172.090240,236.463821 184.516296,252.067062 
	C200.070511,271.598297 219.767685,285.351746 243.180435,293.492889 
	C257.745880,298.557648 272.932068,300.973724 288.508636,300.032654 
	C293.157013,299.751801 297.837585,299.957153 302.502594,300.010925 
	C307.507965,300.068573 311.000824,303.089203 311.966644,308.084503 
	C312.862244,312.716522 309.977325,318.244354 305.746216,319.693115 
	C303.923157,320.317322 301.957520,321.001190 300.084869,320.928802 
	C285.753998,320.374634 271.288818,320.655701 257.142395,318.686707 
	C241.973038,316.575348 227.371582,311.355591 213.867569,303.913330 
	C191.132034,291.383514 172.467926,274.460480 158.937363,252.024002 
	C150.651932,238.285019 144.240112,223.668686 142.351486,207.903000 
	C140.756027,194.584656 141.442505,180.898163 142.122147,167.425201 
	C143.048584,149.059830 148.985168,131.952179 157.661102,115.825851 
	C166.068695,100.198334 176.595383,86.313087 190.420609,74.892029 
	C200.005417,66.973999 210.157837,60.173252 221.707794,54.711746 
z"/>
<path fill="#1264a3" opacity="1.000000" stroke="none" 
	d="
M120.000000,371.000000 
	C170.462296,371.000000 220.424591,371.000000 270.999969,371.000000 
	C270.999969,363.781128 270.973541,356.846588 271.008057,349.912292 
	C271.037262,344.041595 274.549835,340.993500 281.178589,341.000000 
	C287.159698,341.005859 290.972900,344.485504 290.993866,350.019684 
	C291.019653,356.821594 291.000031,363.623657 291.000031,371.000000 
	C293.264435,371.000000 295.202576,371.000000 297.140686,371.000000 
	C357.626740,371.000000 418.113495,371.150635 478.598206,370.866577 
	C490.010651,370.812988 501.721039,382.087524 501.067230,393.177948 
	C500.695251,399.487885 501.029114,405.837921 500.991455,412.169556 
	C500.957245,417.923889 497.337982,421.011017 490.739594,421.000000 
	C484.608856,420.989807 481.050446,417.774933 481.006714,412.148590 
	C480.973022,407.816528 480.995209,403.483978 481.001068,399.151642 
	C481.009827,392.676270 479.375610,390.978790 472.619293,390.990295 
	C455.456635,391.019531 438.293915,391.000000 421.131195,391.000000 
	C379.807404,391.000000 338.483582,391.000000 297.159790,391.000000 
	C295.340607,391.000000 293.521393,391.000000 291.000031,391.000000 
	C291.000031,398.114136 291.022339,405.037781 290.993256,411.961212 
	C290.968018,417.977722 287.578461,421.002350 280.947937,421.000000 
	C274.464172,420.997681 271.026520,417.857452 271.005463,411.857117 
	C270.981598,405.065887 270.999969,398.274506 270.999969,391.000000 
	C268.968506,391.000000 267.352173,391.000000 265.735870,391.000000 
	C207.249359,391.000000 148.762817,391.025085 90.276367,390.970062 
	C82.478043,390.962708 80.809807,392.477783 80.985046,400.275787 
	C81.071136,404.106323 81.014496,407.940399 80.996696,411.772766 
	C80.968033,417.942657 77.506943,421.016205 70.636452,421.000000 
	C64.303627,420.985107 60.886818,417.767822 61.034496,411.546448 
	C61.234226,403.132355 60.632645,394.512939 62.279095,386.366486 
	C64.350388,376.117950 74.990150,370.755554 83.509712,370.935822 
	C95.501556,371.189606 107.502785,371.000000 120.000000,371.000000 
z"/>
<path fill="#1264a3" opacity="1.000000" stroke="none" 
	d="
M450.999969,263.000458 
	C451.000000,277.154053 450.965942,290.807892 451.011810,304.461487 
	C451.043732,313.961487 443.528534,320.803040 435.060364,320.887238 
	C405.757690,321.178711 376.450073,321.065521 347.144897,320.958374 
	C338.665924,320.927399 331.008331,312.809631 331.003357,304.330902 
	C330.992493,285.848389 331.334625,267.357513 330.870667,248.886658 
	C330.605286,238.321152 339.252441,230.729004 348.608246,230.985397 
	C349.242523,231.002762 349.880737,230.875397 351.217102,230.749298 
	C349.605804,215.215515 351.788910,200.895462 364.436554,190.013062 
	C373.958252,181.820343 385.155273,179.845734 397.048889,181.088150 
	C408.910919,182.327271 417.820282,188.705414 424.782990,198.305954 
	C431.886963,208.101242 431.181335,219.273926 430.959473,230.413620 
	C433.933899,230.977203 436.624969,231.384064 439.265015,232.007050 
	C446.546661,233.725311 451.501617,241.579437 451.064392,248.018692 
	C450.738007,252.825302 450.999969,257.671844 450.999969,263.000458 
M411.499573,301.000031 
	C417.928253,301.000031 424.356903,301.000031 430.616455,301.000031 
	C430.616455,283.925873 430.616455,267.532654 430.616455,251.250793 
	C403.958435,251.250793 377.684662,251.250793 351.295166,251.250793 
	C351.295166,267.894684 351.295166,284.286224 351.295166,301.000031 
	C371.225769,301.000031 390.862793,301.000031 411.499573,301.000031 
M410.981842,229.314484 
	C410.654572,225.569580 410.524292,221.794983 409.964783,218.085114 
	C407.910919,204.466660 395.254700,199.226852 383.891571,203.030518 
	C372.975983,206.684357 369.509827,220.399017 371.797455,231.000061 
	C381.890198,231.000061 392.020386,231.054581 402.149292,230.965698 
	C405.058533,230.940186 407.964081,230.500671 410.981842,229.314484 
z"/>
<path fill="#8fb1d1" opacity="1.000000" stroke="none" 
	d="
M231.246521,234.265900 
	C227.936951,240.519623 224.737030,246.443497 221.897736,252.535416 
	C220.180771,256.219299 218.686752,260.210938 214.247437,260.893402 
	C209.553940,261.614990 204.289764,261.760864 202.078079,256.350952 
	C200.915604,253.507462 200.486435,249.761810 201.267975,246.835297 
	C203.960587,236.752640 208.840866,227.785263 215.640182,219.662094 
	C223.228165,210.596756 232.549500,204.113800 242.989182,198.817612 
	C210.361084,170.967865 216.907639,125.429817 241.468506,104.924095 
	C263.612793,86.435944 297.335419,85.863174 320.217712,104.654015 
	C343.521301,123.790794 353.262604,168.824814 319.355774,198.632126 
	C322.264587,200.625000 325.465790,202.335220 328.060211,204.708664 
	C331.965912,208.281754 332.067780,213.955414 328.838135,218.498367 
	C326.494080,221.795700 320.464844,223.315460 316.361023,221.023331 
	C303.412659,213.791229 289.575165,210.945511 274.880005,212.014847 
	C261.220856,213.008835 248.996841,217.641861 238.702515,226.847092 
	C236.184052,229.099106 233.899979,231.613235 231.246521,234.265900 
M247.039764,171.271637 
	C247.568756,171.906967 248.160706,172.500244 248.617401,173.183868 
	C257.104034,185.887390 273.284271,192.897156 287.925049,189.940018 
	C307.086334,186.069824 320.473969,169.316010 320.193542,150.368317 
	C319.860107,127.838051 300.302368,107.865036 274.228302,112.238083 
	C246.238312,116.932449 233.734421,147.442642 247.039764,171.271637 
z"/>
<path fill="#8fb1d1" opacity="1.000000" stroke="none" 
	d="
M33.015873,466.281982 
	C38.949528,453.312347 48.021931,444.323944 61.990829,441.538574 
	C87.448692,436.462341 109.990479,453.614410 111.221329,479.036774 
	C112.207314,499.401642 98.486969,515.085388 84.281967,519.233582 
	C59.140739,526.575378 36.491364,513.783508 31.395004,489.037872 
	C29.944860,481.996613 32.354446,474.160431 33.015873,466.281982 
M85.954971,493.319641 
	C90.604736,486.874603 91.796059,480.002563 88.203064,472.709564 
	C84.549828,465.294312 78.643341,461.694641 70.201950,461.945374 
	C61.411583,462.206421 55.855415,466.872040 52.953468,474.564362 
	C50.301208,481.594849 51.624870,488.471130 56.719444,494.156372 
	C63.056080,501.227692 75.903587,503.417877 85.954971,493.319641 
z"/>
<path fill="#8fb1d1" opacity="1.000000" stroke="none" 
	d="
M241.000122,483.868103 
	C239.904465,471.095001 243.905930,460.689117 252.541504,451.944672 
	C269.282257,434.992798 300.615326,437.671112 314.217621,457.528046 
	C324.605835,472.692993 323.396240,497.154724 308.975769,510.676880 
	C292.240082,526.369995 261.320496,524.721741 247.996475,504.594757 
	C243.865372,498.354401 240.904724,491.936218 241.000122,483.868103 
M299.802734,486.678772 
	C299.867004,485.022949 299.984772,483.367157 299.987000,481.711273 
	C300.003662,469.435974 292.565826,462.021301 280.293854,461.998444 
	C271.503448,461.982056 265.919006,466.793518 262.984802,474.463165 
	C260.306061,481.465149 261.563995,488.381134 266.634155,494.069733 
	C275.103210,503.571869 293.413422,502.760468 299.802734,486.678772 
z"/>
<path fill="#8fb1d1" opacity="1.000000" stroke="none" 
	d="
M501.778809,441.995361 
	C517.383118,446.718781 527.446472,456.791473 530.530518,472.248230 
	C535.760193,498.458557 517.469666,520.509033 493.181610,521.134216 
	C480.641357,521.456970 470.150330,517.841370 461.438080,508.939087 
	C445.358490,492.508820 447.406799,461.498688 467.349701,447.963135 
	C478.039734,440.707703 489.274475,439.746094 501.778809,441.995361 
M478.676788,466.045898 
	C471.582031,472.137848 469.561615,482.958038 474.649811,491.298920 
	C478.615692,497.800018 487.791901,501.842987 495.992065,499.947754 
	C501.311981,498.718201 509.108521,490.691650 509.984711,485.542358 
	C511.510956,476.572784 507.935669,468.752930 500.481384,464.138611 
	C495.408356,460.998322 484.172211,460.643433 478.676788,466.045898 
z"/>
</svg>