<?xml version="1.0" encoding="utf-8"?>
<svg viewBox="0 0 53.71 63" xmlns="http://www.w3.org/2000/svg">
  <g transform="matrix(1, 0, 0, 1, -237.5780029296875, -208.72900390625)">
    <use href="#wpanel" x="237.578" y="208.729" fill="#1263A3"  filter="url('#noise')"/>
    <use href="#wpanel-middle" x="240.002" y="211.097" fill="#000"  filter="url('#noise')"/>
    <!-- <rect style="fill: rgba(0, 0, 0, 0.98);" x="240.002" y="211.097" width="48.9" height="58.2" rx="12.6" ry="12.6"/> -->
    <rect fill="#fff" x="242.4" y="213.5" width="44.1" height="53.4" rx="10.2" ry="10.2"/>
    <g id="Layer_2" transform="matrix(0.064, 0, 0, 0.06399, 257.625916, 186.914078)" style="isolation: isolate;">
      <g id="g-1" transform="matrix(1, 0, 0, 1, 47.73402, 62.71476)" style="isolation: isolate;">
        <g id="Layer_1-2"/>
      </g>
    </g>
    <g id="g-2" transform="matrix(0.095985, 0, 0, 0.095985, 250.434952, 217.080322)" style="isolation: isolate;">
      <g id="g-3" transform="matrix(1, 0, 0, 1, 47.73402, 62.71476)" style="isolation: isolate;">
        <g id="g-4">
          <path class="cls-4" d="m92.55,125.02c2.59-1.35,7.08-3.93,12.34-7.91L58.71,23.48l-17.9,10.87c-.01,27.73,8.58,51.29,25.58,70.11,10.53,11.65,21.44,18.11,26.15,20.56" style="mix-blend-mode: multiply; opacity: 0.9; fill: rgb(68, 190, 223);"/>
          <path class="cls-3" d="m46.99,60.32l-.43,1.57c4.18,13.8,11.16,26.15,20.91,36.93,10.53,11.65,21.45,18.11,26.16,20.56,4.7-2.45,15.62-8.91,26.15-20.56,4.39-4.86,8.22-10.04,11.49-15.53l-84.28-22.97Z" style="mix-blend-mode: multiply; fill: rgb(236, 178, 46);"/>
          <path class="cls-5" d="m96.43,3.75l28.16,94.08c13.81-17.79,20.78-39.38,20.77-64.36L96.43,3.75" style="mix-blend-mode: multiply; fill: rgb(46, 182, 125);"/>
          <path class="cls-2" d="m93.62,0l-51.74,31.43c0,7.71.66,15.1,1.98,22.15L120,16.03,93.62,0" style="mix-blend-mode: multiply; fill: rgb(224, 30, 90);"/>
        </g>
      </g>
    </g>
    <g transform="matrix(-0.028092, 0, 0, -0.028092, 20.891062, -2.799859)" style="transform-origin: 256.001px 256px;">
      <g>
        <path d="M502.154,181.778H384c-4.026,0-7.646,2.644-9.142,6.382l-27.714,69.383l-22.474-97.334 c-1.035-4.489-5.012-7.62-9.65-7.608c-4.606,0.026-8.578,3.255-9.563,7.754l-55.187,252.293l-33.694-379.05 c-0.398-4.471-3.767-8.105-8.192-8.84c-4.432-0.729-8.791,1.422-10.613,5.522L121.601,201.47H9.846 c-5.437,0-9.846,4.409-9.846,9.846c0,5.438,4.409,9.846,9.846,9.846H128c3.891,0,7.417-2.098,8.998-5.654l63.33-142.397 l36.018,405.26c0.43,4.844,4.332,8.671,9.184,8.98c0.212,0.013,0.421,0.031,0.63,0.031c4.595,0,8.619-3.192,9.613-7.736 l59.561-272.278l19.688,85.315c0.967,4.193,4.547,7.273,8.838,7.603c4.313,0.334,8.299-2.357,9.898-6.353l36.909-92.464h111.488 c5.438,0,9.846-4.409,9.846-9.846C512,186.187,507.591,181.778,502.154,181.778z"/>
      </g>
    </g>
    <rect style="transform-box: fill-box; transform-origin: 50% 50%;" transform="matrix(0, 1, -1, 0, -59.251017, 220.068469)" x="304.299" y="33.759" width="2.426" height="2.371" rx="0.2" ry="0.2"/>
    <path d="M 259.558 265.488 L 259.558 264.486 L 259.936 264.486 Q 260.036 264.486 260.088 264.495 Q 260.162 264.508 260.212 264.542 Q 260.262 264.577 260.293 264.639 Q 260.323 264.701 260.323 264.776 Q 260.323 264.904 260.242 264.992 Q 260.16 265.081 259.948 265.081 L 259.691 265.081 L 259.691 265.488 Z M 259.691 264.962 L 259.95 264.962 Q 260.078 264.962 260.132 264.915 Q 260.186 264.867 260.186 264.78 Q 260.186 264.717 260.154 264.672 Q 260.123 264.627 260.071 264.613 Q 260.037 264.604 259.947 264.604 L 259.691 264.604 Z M 260.237 265.488 L 260.622 264.486 L 260.765 264.486 L 261.175 265.488 L 261.024 265.488 L 260.907 265.185 L 260.488 265.185 L 260.378 265.488 Z M 260.526 265.077 L 260.866 265.077 L 260.761 264.799 Q 260.714 264.673 260.69 264.591 Q 260.671 264.688 260.636 264.783 Z M 261.369 265.488 L 261.369 264.486 L 261.505 264.486 L 262.032 265.273 L 262.032 264.486 L 262.159 264.486 L 262.159 265.488 L 262.023 265.488 L 261.497 264.701 L 261.497 265.488 Z M 262.464 265.488 L 262.464 264.486 L 262.596 264.486 L 262.596 265.488 Z M 263.594 265.137 L 263.726 265.17 Q 263.685 265.334 263.576 265.419 Q 263.468 265.505 263.311 265.505 Q 263.149 265.505 263.048 265.439 Q 262.946 265.373 262.893 265.248 Q 262.84 265.123 262.84 264.979 Q 262.84 264.823 262.9 264.706 Q 262.96 264.59 263.071 264.529 Q 263.181 264.469 263.314 264.469 Q 263.464 264.469 263.566 264.545 Q 263.669 264.622 263.709 264.761 L 263.579 264.791 Q 263.544 264.682 263.478 264.632 Q 263.411 264.582 263.311 264.582 Q 263.195 264.582 263.118 264.638 Q 263.04 264.693 263.009 264.786 Q 262.977 264.88 262.977 264.979 Q 262.977 265.107 263.014 265.202 Q 263.052 265.297 263.13 265.344 Q 263.209 265.392 263.301 265.392 Q 263.412 265.392 263.489 265.327 Q 263.566 265.263 263.594 265.137 Z M 264.331 265.488 L 264.716 264.486 L 264.859 264.486 L 265.269 265.488 L 265.118 265.488 L 265.001 265.185 L 264.582 265.185 L 264.472 265.488 Z M 264.621 265.077 L 264.96 265.077 L 264.856 264.799 Q 264.808 264.673 264.785 264.591 Q 264.765 264.688 264.731 264.783 Z M 265.46 265.488 L 265.46 264.486 L 265.592 264.486 L 265.592 265.37 L 266.086 265.37 L 266.086 265.488 Z M 266.199 265.488 L 266.584 264.486 L 266.727 264.486 L 267.137 265.488 L 266.986 265.488 L 266.869 265.185 L 266.45 265.185 L 266.34 265.488 Z M 266.488 265.077 L 266.828 265.077 L 266.723 264.799 Q 266.675 264.673 266.652 264.591 Q 266.633 264.688 266.598 264.783 Z M 267.342 265.488 L 267.342 264.486 L 267.787 264.486 Q 267.921 264.486 267.99 264.513 Q 268.06 264.54 268.102 264.608 Q 268.143 264.677 268.143 264.759 Q 268.143 264.866 268.074 264.939 Q 268.005 265.012 267.861 265.032 Q 267.914 265.057 267.941 265.082 Q 267.999 265.135 268.051 265.215 L 268.226 265.488 L 268.059 265.488 L 267.926 265.28 Q 267.868 265.189 267.83 265.141 Q 267.793 265.094 267.763 265.074 Q 267.733 265.055 267.703 265.048 Q 267.68 265.043 267.629 265.043 L 267.475 265.043 L 267.475 265.488 Z M 267.475 264.928 L 267.76 264.928 Q 267.851 264.928 267.902 264.909 Q 267.953 264.891 267.98 264.849 Q 268.007 264.808 268.007 264.759 Q 268.007 264.688 267.955 264.642 Q 267.904 264.597 267.792 264.597 L 267.475 264.597 Z M 268.266 265.488 L 268.266 264.486 L 268.466 264.486 L 268.703 265.195 Q 268.736 265.295 268.751 265.344 Q 268.768 265.289 268.804 265.183 L 269.044 264.486 L 269.222 264.486 L 269.222 265.488 L 269.095 265.488 L 269.095 264.649 L 268.803 265.488 L 268.684 265.488 L 268.394 264.635 L 268.394 265.488 Z" style="fill: rgb(51, 51, 51);"/>
    <rect style="transform-origin: 305.512px 34.945px;" transform="matrix(0, 1, -1, 0, -54.426994, 220.067978)" x="304.299" y="33.759" width="2.426" height="2.371" rx="0.2" ry="0.2"/>
    <rect style="transform-origin: 305.512px 34.945px;" transform="matrix(0, 1, -1, 0, -49.627007, 220.068008)" x="304.299" y="33.759" width="2.426" height="2.371" rx="0.2" ry="0.2"/>
    <path d="M 255.576 257.496 L 255.576 256.78 L 255.673 256.78 L 256.049 257.342 L 256.049 256.78 L 256.14 256.78 L 256.14 257.496 L 256.043 257.496 L 255.667 256.934 L 255.667 257.496 Z" style="fill: rgb(51, 51, 51);"/>
    <path d="M 251.288 257.212 L 251.383 257.236 Q 251.353 257.353 251.275 257.414 Q 251.198 257.475 251.086 257.475 Q 250.971 257.475 250.898 257.428 Q 250.825 257.381 250.788 257.292 Q 250.75 257.202 250.75 257.1 Q 250.75 256.988 250.793 256.905 Q 250.835 256.821 250.914 256.778 Q 250.993 256.735 251.088 256.735 Q 251.195 256.735 251.268 256.79 Q 251.342 256.844 251.37 256.943 L 251.277 256.965 Q 251.252 256.887 251.205 256.852 Q 251.158 256.816 251.086 256.816 Q 251.003 256.816 250.948 256.856 Q 250.892 256.895 250.87 256.962 Q 250.847 257.028 250.847 257.099 Q 250.847 257.191 250.874 257.259 Q 250.901 257.327 250.957 257.36 Q 251.013 257.394 251.078 257.394 Q 251.158 257.394 251.213 257.348 Q 251.268 257.302 251.288 257.212 Z" style="fill: rgb(51, 51, 51);"/>
    <path d="M 246.023 257.493 L 246.023 256.777 L 246.292 256.777 Q 246.374 256.777 246.423 256.799 Q 246.473 256.821 246.501 256.866 Q 246.529 256.911 246.529 256.96 Q 246.529 257.006 246.504 257.047 Q 246.479 257.087 246.429 257.112 Q 246.494 257.131 246.529 257.177 Q 246.564 257.223 246.564 257.285 Q 246.564 257.336 246.543 257.379 Q 246.521 257.422 246.49 257.446 Q 246.459 257.469 246.412 257.481 Q 246.365 257.493 246.296 257.493 Z M 246.118 257.078 L 246.273 257.078 Q 246.336 257.078 246.363 257.07 Q 246.399 257.059 246.418 257.034 Q 246.436 257.009 246.436 256.972 Q 246.436 256.936 246.419 256.909 Q 246.402 256.882 246.37 256.872 Q 246.338 256.862 246.261 256.862 L 246.118 256.862 Z M 246.118 257.409 L 246.296 257.409 Q 246.342 257.409 246.361 257.405 Q 246.393 257.399 246.415 257.386 Q 246.437 257.372 246.451 257.346 Q 246.466 257.32 246.466 257.285 Q 246.466 257.245 246.445 257.216 Q 246.425 257.186 246.388 257.174 Q 246.352 257.162 246.283 257.162 L 246.118 257.162 Z" style="fill: rgb(51, 51, 51);"/>
  </g>
</svg>